{"title":"INSIDE.MAN.2006. DvDRip.Xvid","uid":6477294,"size":2096719422,"categoryP":"video","categoryS":"movies","magnet":"?xt=urn:btih:b95d9a976b581283aa7bf2de64d5078cabb4efe0&amp;dn=INSIDE.MAN.2006.+DvDRip.Xvid&amp;tr=udp%3A%2F%2Ftracker.openbittorrent.com%3A80&amp;tr=udp%3A%2F%2Fopen.demonii.com%3A1337&amp;tr=udp%3A%2F%2Ftracker.coppersurfer.tk%3A6969&amp;tr=udp%3A%2F%2Fexodus.desync.com%3A6969","seeders":2,"leechers":0,"uploader":null,"files":-1,"time":1308353527,"description":"INSIDE.MAN.2006.DvDRip.Xvid..avi\n\nFormat                           : AVI\nFormat/Info                      : Audio Video Interleave\nFormat profile                   : OpenDML\nFile size                        : 1.95 GiB\nDuration                         : 2h 8mn\nOverall bit rate                 : 2 171 Kbps\nWriting application              : Lavf52.39.0\n\nVideo\nID                               : 0\nFormat                           : xvid\nCodec ID                         : xvid\nDuration                         : 2h 8mn\nBit rate                         : 1 965 Kbps\nWidth                            : 720 pixels\nHeight                           : 480 pixels\nDisplay aspect ratio             : 3:2\nFrame rate                       : 30.000 fps\nStandard                         : NTSC\nBits/(Pixel*Frame)               : 0.190\nStream size                      : 1.77 GiB (91%)\n\nAudio\nID                               : 1\nFormat                           : MPEG Audio\nFormat version                   : Version 1\nFormat profile                   : Layer 3\nMode                             : Joint stereo\nMode extension                   : MS Stereo\nCodec ID                         : 55\nCodec ID/Hint                    : MP3\nDuration                         : 2mn 17s\nBit rate mode                    : Constant\nBit rate                         : 192 Kbps\nChannel(s)                       : 2 channels\nSampling rate                    : 48.0 KHz\nCompression mode                 : Lossy\nStream size                      : 3.15 MiB (0%)\nAlignment                        : Aligned on interleaves\nInterleave, duration             : 1348 ms (40.44 video frames)\nWriting library                  : LAME3.98.2\n\n","torrent":{"xt":"urn:btih:b95d9a976b581283aa7bf2de64d5078cabb4efe0","amp;dn":"INSIDE.MAN.2006.+DvDRip.Xvid","amp;tr":["udp%3A%2F%2Ftracker.openbittorrent.com%3A80","udp%3A%2F%2Fopen.demonii.com%3A1337","udp%3A%2F%2Ftracker.coppersurfer.tk%3A6969","udp%3A%2F%2Fexodus.desync.com%3A6969"],"infoHash":"b95d9a976b581283aa7bf2de64d5078cabb4efe0","infoHashBuffer":{"type":"Buffer","data":[185,93,154,151,107,88,18,131,170,123,242,222,100,213,7,140,171,180,239,224]},"announce":[],"urlList":[]}}